<svg xmlns="http://www.w3.org/2000/svg" width="98" height="55" viewBox="0 0 98 55" fill="none">
  <g clip-path="url(#clip0_584_871)">
    <path d="M51.79 0.302704L49.4161 14.16H25.6767L24.053 22.0097H39.6068L37.1992 34.9432H21.8806L18.6108 53.9124H0L9.3614 0.302704H51.79Z" fill="#61259E"/>
    <path d="M68.3347 2.73823L69.4937 0.302704H90.3105L97.9754 53.9124H79.2694L78.7935 46.589L75.1262 46.4434L73.0938 34.6689H78.2168L77.4889 17.4522H76.218L72.4387 28.3477L68.3347 2.73823Z" fill="#61259E"/>
    <path d="M66.5542 0.302704H53.9118L51.3307 15.235H36.8015L33.8565 20.6716H41.3758L38.2908 36.4773H24.7358L22.1323 42.1211L20.2063 53.9124H36.8855L40.0489 46.7346H55.4515L56.1402 53.9124H74.5606L66.5542 0.302704ZM53.727 34.5513H45.2615L51.9802 17.329H53.7102L53.727 34.5513Z" fill="#61259E"/>
  </g>
  <defs>
    <clipPath id="clip0_584_871">
      <rect width="97.9755" height="54.2727" fill="white" transform="translate(0 0.302704)"/>
    </clipPath>
  </defs>
</svg>