<svg width="66" height="45" viewBox="0 0 66 45" fill="none" xmlns="http://www.w3.org/2000/svg">
<g clip-path="url(#clip0_568_107)">
<path d="M34.6715 0.861328L33.0822 10.1383H17.1896L16.1026 15.3934H26.5152L24.9035 24.0519H14.6482L12.4592 36.751H0L6.2671 0.861328H34.6715Z" fill="white"/>
<path d="M45.7476 2.49182L46.5235 0.861328H60.4595L65.5909 36.751H53.0679L52.7493 31.8483L50.2942 31.7508L48.9336 23.8682H52.3632L51.876 12.3423H51.0251L48.495 19.6364L45.7476 2.49182Z" fill="white"/>
<path d="M44.5555 0.861328H36.0919L34.364 10.858H24.6372L22.6656 14.4975H27.6995L25.6342 25.0789H16.5597L14.8167 28.8571L13.5273 36.751H24.6934L26.8112 31.9457H37.1227L37.5837 36.751H49.9155L44.5555 0.861328ZM35.9682 23.7895H30.3008L34.7988 12.2598H35.957L35.9682 23.7895Z" fill="white"/>
<path d="M1.79536 44.611C1.79536 44.611 1.73164 44.656 1.60795 44.6972C1.4571 44.7421 1.30054 44.7648 1.14316 44.7647C0.980251 44.7833 0.815245 44.7638 0.66111 44.7079C0.506975 44.652 0.367905 44.5611 0.25482 44.4424C0.0636762 44.1439 -0.0245251 43.7911 0.00368722 43.4378C0.00476678 43.2254 0.042819 43.0149 0.116136 42.8156C0.180025 42.6566 0.296437 42.5243 0.445986 42.4408C0.635511 42.338 0.848972 42.2876 1.06445 42.2946C1.20511 42.2933 1.34561 42.3045 1.48425 42.3283L1.75038 42.3883L1.85533 42.8044C1.77847 42.7561 1.69683 42.7159 1.6117 42.6844C1.47599 42.6352 1.33247 42.6111 1.18814 42.6132C1.0962 42.6032 1.00336 42.6207 0.921314 42.6634C0.839271 42.706 0.771698 42.7721 0.727106 42.8531C0.645111 43.0421 0.605453 43.2468 0.610911 43.4528C0.609331 43.6146 0.62061 43.7763 0.644644 43.9363C0.658507 44.071 0.706215 44.1999 0.783328 44.3112C0.819797 44.3605 0.867202 44.4008 0.921829 44.4287C0.976455 44.4567 1.03682 44.4716 1.09818 44.4723C1.23329 44.4755 1.3682 44.4604 1.49925 44.4274C1.58809 44.4062 1.6729 44.3708 1.75038 44.3224L1.8291 44.2662L1.79536 44.611Z" fill="white"/>
<path d="M3.29472 43.6552L3.99565 44.746H3.34719L2.59754 43.4191H3.03234C3.32845 43.4191 3.47838 43.2916 3.48588 43.0442C3.49236 42.9275 3.45492 42.8125 3.38093 42.7219C3.34706 42.6829 3.30494 42.6519 3.25762 42.6311C3.2103 42.6104 3.15895 42.6004 3.1073 42.6019H2.60504V44.7497H2.05029V42.2983H3.17477C3.72202 42.2983 3.99565 42.5345 3.99565 43.0068C3.99849 43.0866 3.98536 43.1661 3.95704 43.2408C3.92872 43.3155 3.88577 43.3837 3.83072 43.4416C3.73446 43.5335 3.61543 43.5982 3.48588 43.629C3.42685 43.6447 3.3667 43.656 3.30596 43.6627L3.29472 43.6552Z" fill="white"/>
<path d="M4.20555 42.2947H5.87353V42.6095H4.74905V43.3255H5.67487V43.6291H4.74905V44.4499H5.87353V44.7573H4.19055L4.20555 42.2947Z" fill="white"/>
<path d="M6.52575 44.1613L6.3271 44.746H5.95227L6.79938 42.2947H7.42534L8.28744 44.746H7.7327L7.5153 44.1613H6.52575ZM7.38785 43.8052L7.01303 42.7595L6.6382 43.8052H7.38785Z" fill="white"/>
<path d="M8.95829 42.6095H8.28735V42.3059H10.1915V42.6095H9.51679V44.7573H8.95829V42.6095Z" fill="white"/>
<path d="M10.9375 42.2947V44.746H10.379V42.2947H10.9375Z" fill="white"/>
<path d="M12.7928 44.0527V42.2985H13.1939V44.7499H12.5417L11.6458 42.8758V44.7312H11.271V42.2798H11.9607L12.7928 44.0527Z" fill="white"/>
<path d="M15.4804 43.6666V44.5512C15.4804 44.5512 15.4466 44.5849 15.3754 44.6224C15.2708 44.6672 15.1613 44.6999 15.0493 44.7199C14.8763 44.7524 14.7005 44.7675 14.5245 44.7649C14.3014 44.7719 14.0804 44.7202 13.8836 44.6149C13.7237 44.52 13.6048 44.369 13.55 44.1914C13.4759 43.9487 13.443 43.6953 13.4525 43.4417C13.4517 43.228 13.4898 43.0159 13.565 42.8158C13.6299 42.6586 13.7444 42.527 13.8911 42.4409C14.0705 42.3442 14.2721 42.2964 14.4758 42.3022C14.6778 42.2989 14.8797 42.3127 15.0793 42.3435C15.1712 42.3482 15.2614 42.3698 15.3454 42.4072L15.4391 42.8008L15.3529 42.7483C15.2768 42.7089 15.1963 42.6787 15.113 42.6583C14.9907 42.6268 14.8645 42.6129 14.7382 42.6171H14.5808C14.2284 42.6396 14.0523 42.9207 14.0523 43.453C14.0522 43.6157 14.0609 43.7784 14.0785 43.9402C14.0888 44.0723 14.1285 44.2003 14.1947 44.3151C14.2221 44.3634 14.2611 44.4042 14.3082 44.4337C14.3554 44.4631 14.4091 44.4803 14.4646 44.4837C14.576 44.4878 14.6874 44.4739 14.7944 44.4425C14.8434 44.4279 14.8901 44.4064 14.9331 44.3788V43.6929L15.4804 43.6666Z" fill="white"/>
<path d="M18.0252 44.7723L16.8633 42.2947H17.4405L18.1189 43.7265L18.6587 42.2947H19.0073L18.0252 44.7723Z" fill="white"/>
<path d="M19.6108 44.1613L19.4084 44.746H19.0336L19.8807 42.2947H20.5066L21.3687 44.746H20.814L20.6003 44.1613H19.6108ZM20.4729 43.8052L20.0981 42.7595L19.742 43.8052H20.4729Z" fill="white"/>
<path d="M22.0697 44.4387H23.2579V44.746H21.5112V42.2947H22.0697V44.4387Z" fill="white"/>
<path d="M24.3861 44.7835C24.1647 44.797 23.9435 44.7518 23.7452 44.6523C23.617 44.5853 23.5181 44.4731 23.4678 44.3375C23.4253 44.2043 23.4051 44.065 23.4078 43.9252V42.2947H23.9738V43.9214C23.975 43.9351 23.975 43.9489 23.9738 43.9627V44.0264C23.9738 44.3112 24.1313 44.4574 24.4499 44.4574C24.7685 44.4574 24.8922 44.315 24.8922 44.0339V43.9589C24.8911 43.9414 24.8911 43.9239 24.8922 43.9064V42.2947H25.3607V44.0189C25.3557 44.5286 25.0308 44.7835 24.3861 44.7835Z" fill="white"/>
<path d="M25.6869 42.2947H27.3549V42.6095H26.2304V43.3255H27.1862V43.6291H26.2491V44.4499H27.3736V44.7573H25.6869V42.2947Z" fill="white"/>
<path d="M29.3715 42.6095H28.6855V42.3059H30.5897V42.6095H29.915V44.7573H29.3602L29.3715 42.6095Z" fill="white"/>
<path d="M32.1639 43.6179H31.3392V44.7424H30.7808V42.291H31.3392V43.3105H32.1639V42.291H32.7149V44.7424H32.1639V43.6179Z" fill="white"/>
<path d="M34.2779 43.6552L34.9788 44.746H34.3303L33.5807 43.4191H34.0192C34.3116 43.4191 34.4615 43.2916 34.469 43.0442C34.4748 42.9282 34.4389 42.8138 34.3678 42.7219C34.3325 42.6837 34.2895 42.6534 34.2418 42.6327C34.194 42.6121 34.1425 42.6016 34.0905 42.6019H33.5919V44.7497H33.0334V42.2983H34.1579C34.7052 42.2983 34.9788 42.5345 34.9788 43.0068C34.9818 43.0869 34.9684 43.1668 34.9394 43.2416C34.9104 43.3164 34.8664 43.3844 34.8101 43.4416C34.7145 43.5345 34.5952 43.5993 34.4653 43.629C34.4076 43.6449 34.3486 43.6562 34.2891 43.6627L34.2779 43.6552Z" fill="white"/>
<path d="M36.1558 42.2835C36.3706 42.2734 36.5842 42.3213 36.7742 42.4221C36.9311 42.5145 37.0505 42.6591 37.1116 42.8307C37.1855 43.0516 37.2197 43.2838 37.2128 43.5166C37.2203 43.7553 37.1821 43.9932 37.1003 44.2176C37.0359 44.3904 36.9142 44.536 36.7555 44.6299C36.5682 44.7268 36.3589 44.7733 36.1483 44.7648C35.9463 44.7741 35.7456 44.7288 35.5673 44.6336C35.4098 44.5409 35.2893 44.3966 35.2262 44.2251C35.1478 43.9973 35.111 43.7574 35.1175 43.5166C35.0959 43.1888 35.1872 42.8634 35.3761 42.5946C35.4745 42.4877 35.5956 42.4042 35.7306 42.3504C35.8655 42.2965 36.0108 42.2737 36.1558 42.2835ZM35.6947 43.5166C35.6963 43.7422 35.7278 43.9666 35.7884 44.1838C35.8118 44.2621 35.8625 44.3293 35.9313 44.3733C36.0001 44.4173 36.0824 44.4352 36.1633 44.4237C36.2221 44.4288 36.2812 44.4198 36.3359 44.3977C36.3907 44.3756 36.4394 44.3408 36.4781 44.2963C36.55 44.2054 36.5954 44.0964 36.6093 43.9814C36.6288 43.8311 36.6376 43.6795 36.6355 43.5279C36.6373 43.3764 36.6298 43.2249 36.613 43.0743C36.6004 42.9603 36.5577 42.8516 36.4894 42.7595C36.4537 42.7119 36.4072 42.6735 36.3538 42.6474C36.3003 42.6214 36.2414 42.6084 36.182 42.6096C36.1021 42.6043 36.0226 42.6247 35.9551 42.6679C35.8877 42.711 35.8358 42.7747 35.8072 42.8494C35.7305 43.0634 35.6924 43.2893 35.6947 43.5166Z" fill="white"/>
<path d="M38.431 44.7835C38.2096 44.7961 37.9887 44.7509 37.7901 44.6523C37.6628 44.5852 37.5652 44.4729 37.5164 44.3375C37.4726 44.2045 37.4511 44.0652 37.4527 43.9252V42.2947H38.0225V43.9214C38.0236 43.9351 38.0236 43.9489 38.0225 43.9627C38.0225 43.9851 38.0225 44.0076 38.0225 44.0264C38.0225 44.3112 38.1836 44.4574 38.5022 44.4574C38.8208 44.4574 38.9445 44.315 38.9445 44.0339C38.9461 44.0089 38.9461 43.9839 38.9445 43.9589V42.2947H39.4093V44.0189C39.3918 44.5286 39.0657 44.7835 38.431 44.7835Z" fill="white"/>
<path d="M41.6882 43.6664V44.551C41.6882 44.551 41.6507 44.5848 41.5795 44.6222C41.4759 44.6665 41.3678 44.6992 41.2571 44.7197C41.0842 44.7523 40.9084 44.7673 40.7324 44.7647C40.5081 44.7717 40.2859 44.72 40.0877 44.6148C39.9294 44.518 39.8111 44.3677 39.7541 44.1912C39.6818 43.9481 39.6489 43.695 39.6566 43.4415C39.6577 43.228 39.6958 43.0162 39.7691 42.8156C39.8362 42.6598 39.9502 42.5288 40.0952 42.4408C40.2757 42.3436 40.4787 42.2957 40.6836 42.3021C40.8856 42.2989 41.0875 42.3127 41.2871 42.3433C41.3779 42.3472 41.467 42.3689 41.5495 42.407L41.6469 42.8006L41.5607 42.7481C41.4836 42.7081 41.4017 42.6779 41.3171 42.6582C41.1949 42.626 41.0686 42.6121 40.9423 42.6169H40.7811C40.4325 42.6394 40.2563 42.9205 40.2563 43.4528C40.2544 43.6156 40.2631 43.7784 40.2826 43.9401C40.2916 44.0718 40.33 44.1999 40.395 44.3149C40.4235 44.3631 40.4633 44.4037 40.511 44.4331C40.5586 44.4625 40.6128 44.4798 40.6686 44.4836C40.7801 44.4876 40.8915 44.4737 40.9985 44.4423C41.0464 44.428 41.0919 44.4065 41.1334 44.3786V43.6927L41.6882 43.6664Z" fill="white"/>
<path d="M43.3711 43.6179H42.554V44.7424H41.9993V42.291H42.554V43.3105H43.3824V42.291H43.9334V44.7424H43.3824L43.3711 43.6179Z" fill="white"/>
<path d="M46.0437 44.746H45.4852V42.2947H47.1532V42.6095H46.0287V43.3255H46.9508V43.6291H46.0287L46.0437 44.746Z" fill="white"/>
<path d="M47.3257 42.2947H48.9936V42.6095H47.8692V43.3255H48.795V43.6291H47.8692V44.4499H48.9936V44.7573H47.3107L47.3257 42.2947Z" fill="white"/>
<path d="M49.7807 44.4387H50.9726V44.746H49.226V42.2947H49.7807V44.4387Z" fill="white"/>
<path d="M51.6999 44.4387H52.8918V44.746H51.1451V42.2947H51.6999V44.4387Z" fill="white"/>
<path d="M54.0312 42.2834C54.2461 42.2724 54.46 42.3204 54.6496 42.4221C54.8065 42.5145 54.926 42.6591 54.987 42.8307C55.0609 43.0516 55.0951 43.2838 55.0882 43.5166C55.0957 43.7553 55.0575 43.9932 54.9757 44.2175C54.9139 44.3918 54.7915 44.5381 54.6309 44.6299C54.445 44.7268 54.2369 44.7733 54.0274 44.7648C53.8243 44.7738 53.6225 44.7285 53.4427 44.6336C53.2842 44.543 53.1643 44.3977 53.1053 44.225C53.0269 43.9973 52.9901 43.7574 52.9966 43.5166C52.9751 43.1887 53.0663 42.8634 53.2553 42.5945C53.3526 42.4873 53.473 42.4036 53.6074 42.3497C53.7418 42.2958 53.8867 42.2731 54.0312 42.2834ZM53.5739 43.5166C53.5745 43.742 53.6048 43.9663 53.6638 44.1838C53.6873 44.262 53.7379 44.3293 53.8067 44.3733C53.8755 44.4173 53.9578 44.4352 54.0387 44.4237C54.0975 44.4287 54.1566 44.4198 54.2114 44.3977C54.2661 44.3755 54.3148 44.3408 54.3535 44.2962C54.4239 44.2045 54.4692 44.096 54.4847 43.9814C54.5042 43.831 54.513 43.6795 54.5109 43.5279C54.5127 43.3764 54.5052 43.2249 54.4884 43.0743C54.4727 42.9604 54.4289 42.8522 54.361 42.7595C54.314 42.7094 54.2556 42.6716 54.1907 42.6492C54.1258 42.6267 54.0565 42.6204 53.9886 42.6307C53.9207 42.6411 53.8564 42.6677 53.8011 42.7084C53.7459 42.7491 53.7013 42.8027 53.6713 42.8644C53.6035 43.075 53.5706 43.2954 53.5739 43.5166Z" fill="white"/>
<path d="M58.1656 42.2947L57.4159 44.7873L56.6963 42.9469L56.0141 44.7873L55.1782 42.2947H55.7667L56.1415 43.5054L56.4901 42.5646L56.4002 42.2947H57.0261L57.4609 43.5054L57.8095 42.2947H58.1656Z" fill="white"/>
<path d="M58.7803 42.8945C58.7803 42.9882 58.859 43.0594 59.0127 43.1044C59.1664 43.1494 59.3238 43.1981 59.4812 43.2356C59.6323 43.2748 59.773 43.3465 59.8935 43.4455C59.9548 43.5034 60.0027 43.574 60.0338 43.6523C60.0649 43.7307 60.0784 43.8149 60.0735 43.899C60.0808 44.0674 60.046 44.2349 59.9723 44.3863C59.91 44.5055 59.8097 44.6005 59.6874 44.6562C59.5483 44.72 59.398 44.7556 59.2451 44.7611H59.0652C58.9397 44.7631 58.8143 44.7544 58.6903 44.7349C58.5952 44.7204 58.5013 44.6991 58.4092 44.6712C58.3343 44.6487 58.2968 44.6375 58.2968 44.63L58.2031 44.2551L58.3155 44.3039C58.3942 44.3338 58.4842 44.3638 58.5891 44.3938C58.7046 44.4215 58.8228 44.4366 58.9415 44.4388C59.0878 44.4554 59.2352 44.4195 59.3575 44.3376C59.3957 44.2973 59.425 44.2495 59.4437 44.1972C59.4625 44.1449 59.4701 44.0894 59.4662 44.034C59.4752 43.9724 59.4662 43.9096 59.4402 43.8531C59.4143 43.7965 59.3726 43.7487 59.3201 43.7154C59.1698 43.646 59.011 43.5969 58.8478 43.5692C58.6713 43.5382 58.5038 43.4691 58.3567 43.3668C58.2581 43.2549 58.2 43.1131 58.1918 42.9642C58.1836 42.8152 58.2259 42.6679 58.3118 42.5459C58.3884 42.4516 58.4896 42.3802 58.6041 42.3398C58.7356 42.2931 58.8733 42.2666 59.0127 42.2611C59.2099 42.2565 59.407 42.2715 59.6012 42.306C59.6981 42.3213 59.7934 42.3451 59.886 42.3773L59.9872 42.7708C59.8663 42.7165 59.7409 42.6726 59.6124 42.6396C59.4891 42.6143 59.3635 42.6017 59.2376 42.6022C59.124 42.5978 59.0107 42.6156 58.904 42.6546C58.8627 42.6787 58.8291 42.714 58.8072 42.7565C58.7853 42.799 58.7759 42.8469 58.7803 42.8945Z" fill="white"/>
<path d="M61.7002 43.6179H60.8756V44.7424H60.3171V42.291H60.8756V43.3105H61.7002V42.291H62.2512V44.7424H61.7002V43.6179Z" fill="white"/>
<path d="M63.1246 42.2947V44.746H62.5698V42.2947H63.1246Z" fill="white"/>
<path d="M65.3885 43.003C65.3995 43.1673 65.356 43.3307 65.2648 43.4678C65.1888 43.5735 65.0791 43.6502 64.9537 43.6852C64.8042 43.7221 64.6505 43.7398 64.4964 43.7377H63.9942V44.746H63.4357V42.2946H64.5601C64.7723 42.2826 64.983 42.3363 65.1636 42.4483C65.2422 42.5165 65.3035 42.6023 65.3426 42.6987C65.3817 42.7951 65.3974 42.8994 65.3885 43.003ZM64.86 43.003C64.8651 42.8984 64.8288 42.7961 64.7588 42.7182C64.7251 42.6829 64.6843 42.6553 64.639 42.6372C64.5937 42.6191 64.5451 42.6109 64.4964 42.6132H63.9942V43.4528H64.4814C64.5331 43.4572 64.5851 43.4507 64.6341 43.434C64.6831 43.4172 64.7281 43.3904 64.7663 43.3554C64.8058 43.3028 64.8344 43.243 64.8505 43.1793C64.8666 43.1155 64.8698 43.0493 64.86 42.9843V43.003Z" fill="white"/>
</g>
<defs>
<clipPath id="clip0_568_107">
<rect width="65.5909" height="43.926" fill="white" transform="translate(0 0.861328)"/>
</clipPath>
</defs>
</svg>
